<?xml version="1.0" encoding="utf-8"?>
<!-- Generator: Adobe Illustrator 21.1.0, SVG Export Plug-In . SVG Version: 6.00 Build 0)  -->
<svg version="1.1" xmlns="http://www.w3.org/2000/svg" xmlns:xlink="http://www.w3.org/1999/xlink" x="0px" y="0px"
	 viewBox="0 0 599.3 404.5" style="enable-background:new 0 0 599.3 404.5;" xml:space="preserve">
<style type="text/css">
	.st0{fill:#FFFFFF;}
	.st1{fill:none;}
	.st2{fill:#00C3FF;}
	.st3{fill:#D300FF;}
	.st4{fill:#4A05CE;}
</style>
<g id="레이어_2">
</g>
<g id="레이어_1">
	<path class="st0" d="M568.9,188.6c-15-3.6-36.4-6.9-63.4-9.6c-3.6-0.4-7.4-0.7-11.1-1.1c-3.5-29.1-13.1-56.3-27.6-80.2
		c-9.9-16.4-22-31.2-36-44.1c-13.9-12.9-29.7-23.8-46.8-32.4C356.7,7.7,326.1,0,293.6,0c-4.2,0-8.4,0.1-12.5,0.4
		c-68.7,4.2-128.2,42.7-161.5,98.7c-14.2,23.9-23.7,51.1-27,80c-26.5,2.7-47.5,5.9-62.3,9.5c-15.8,3.8-30.4,9-30.4,21.2
		s14.6,17.4,30.4,21.2c15,3.6,36.4,6.9,63.4,9.6c0.4,0,0.8,0.1,1.2,0.1c3.7,19.5,10.3,37.9,19.2,55c12.4,23.7,29.3,44.6,49.6,61.6
		c21.5,18,46.7,31.6,74.4,39.5c17.6,5,36.2,7.7,55.4,7.7c8.2,0,16.3-0.5,24.3-1.5c34.4-4.1,66.1-16.8,92.9-36
		c41.2-29.4,70.9-73.8,81.1-125.2c4.6-0.4,9.2-0.8,13.6-1.3c27-2.8,48.4-6,63.4-9.6c15.8-3.8,30.4-9,30.4-21.2
		S584.7,192.4,568.9,188.6z M128.9,223.7c7.6,0.6,15.6,1.1,23.7,1.6c-12.1-0.7-23.6-1.5-34.6-2.5
		C121.6,223.1,125.2,223.4,128.9,223.7z M195.8,227.4c-2.7-0.1-5.3-0.2-7.9-0.3C190.5,227.2,193.2,227.3,195.8,227.4z M186,227
		c-2.5-0.1-4.9-0.2-7.4-0.3C181,226.8,183.5,226.9,186,227z M178.2,226.6c-2.7-0.1-5.3-0.3-7.9-0.4
		C172.9,226.4,175.5,226.5,178.2,226.6z M168.9,226.2c-2.6-0.1-5.1-0.3-7.6-0.4C163.8,225.9,166.4,226,168.9,226.2z M161.2,225.8
		c-2.7-0.2-5.4-0.3-8.1-0.5C155.8,225.5,158.5,225.6,161.2,225.8z M117.7,222.8c-1.6-0.1-3.2-0.3-4.7-0.4
		C114.5,222.5,116.1,222.7,117.7,222.8z M112.2,222.3c-1.8-0.2-3.5-0.3-5.2-0.5C108.7,222,110.4,222.2,112.2,222.3z M103.7,241.5
		c-0.5-0.1-1.1-0.1-1.6-0.2C102.6,241.4,103.2,241.4,103.7,241.5z M110.5,242.1c0.1,0,0.3,0,0.4,0
		C110.8,242.1,110.7,242.1,110.5,242.1z M127.5,243.5C127.5,243.5,127.5,243.5,127.5,243.5C127.5,243.5,127.5,243.5,127.5,243.5
		C127.5,243.5,127.5,243.5,127.5,243.5z M151.6,245.1c0.3,0,0.6,0,0.8,0.1C152.1,245.1,151.9,245.1,151.6,245.1z M160.1,245.6
		c0.1,0,0.3,0,0.4,0C160.4,245.6,160.3,245.6,160.1,245.6z M169,246.1c0.1,0,0.2,0,0.3,0C169.2,246.1,169.1,246.1,169,246.1z
		 M176.9,246.5c0.7,0,1.4,0.1,2.2,0.1C178.4,246.5,177.6,246.5,176.9,246.5z M185.2,246.9c0.8,0,1.5,0.1,2.3,0.1
		C186.7,246.9,186,246.9,185.2,246.9z"/>
	<g>
		<path class="st1" d="M103.5,192.5c-31.9,3.4-48.6,7-57.3,9.6c8.7,2.6,25.6,6.2,58,9.6c-0.5-5.4-0.7-10.9-0.7-16.4
			C103.4,194.3,103.4,193.4,103.5,192.5z"/>
		<path class="st1" d="M469.1,212.8c39.6-3.7,59.3-7.9,69-10.7c-9.6-2.9-29.1-7-68.2-10.7c0,1.3,0.1,2.6,0.1,3.8
			C469.9,201.2,469.6,207,469.1,212.8z"/>
		<path class="st2" d="M264,184.5c-23.3,0.3-46.1,0.8-67.7,1.7c1,11.1,1.6,21.7,1.8,31.9c22.2,0.9,45.6,1.4,69.5,1.7
			C266.7,208.5,265.5,196.8,264,184.5z"/>
		<path class="st2" d="M268.8,237.7c-24.5-0.2-48.2-0.8-70.8-1.7c-1.2,37.1-9.3,68.6-28.9,99.7c19.5,16.3,42.3,28.7,67.4,35.8
			C263.9,330.9,271.2,290.3,268.8,237.7z"/>
		<path class="st2" d="M192.6,151.6c0.7,5.7,1.3,11.2,1.9,16.6c21.7-0.9,44.6-1.5,68.1-1.7c-0.5-75.9,67.6-117.7,105.9-135.2
			C343.9,18.9,316.1,12,286.7,12c-3.8,0-7.6,0.1-11.3,0.4C234.6,35.8,183.7,79.8,192.6,151.6z"/>
		<path class="st3" d="M262.6,166.5c9.7-0.1,19.6-0.2,29.5-0.2c12.2,0,24.3,0.1,36.2,0.3c7.5-52.5,48.6-86.4,82.6-106
			C398.3,48.9,384,39,368.5,31.3C330.2,48.8,262.1,90.6,262.6,166.5z"/>
		<path class="st3" d="M332.1,237.5c-13.1,0.2-26.4,0.3-39.9,0.3c-7.9,0-15.6,0-23.4-0.1c2.4,52.6-4.8,93.2-32.3,133.8
			c16,4.5,32.8,7,50.2,7c7.5,0,14.8-0.5,22-1.3C332.4,336,336.6,293.5,332.1,237.5z"/>
		<path class="st3" d="M264,184.5c1.5,12.4,2.7,24.1,3.6,35.3c8.1,0.1,16.3,0.1,24.5,0.1c12.9,0,25.7-0.1,38.2-0.3
			c-0.7-6.4-1.4-12.9-2.3-19.7c-0.6-5.3-1-10.4-1-15.3c-11.5-0.2-23.2-0.2-35-0.2C282.7,184.3,273.3,184.3,264,184.5z"/>
		<path class="st3" d="M392.5,186.3c-1.3,9.8-1.3,20.3,0,31.4c27-1.1,52-2.7,74.1-4.8c0.8-0.1,1.6-0.1,2.4-0.2
			c0.5-5.8,0.8-11.6,0.8-17.5c0-1.3,0-2.6-0.1-3.8c-1-0.1-2.1-0.2-3.1-0.3C444.6,189.1,419.5,187.5,392.5,186.3z"/>
		<path class="st3" d="M396.2,168.5c26.2,1.2,50.6,2.7,72.3,4.7c-3.2-26.3-11.9-51-25-72.7C423.2,117.4,404.6,139.8,396.2,168.5z"/>
		<path class="st3" d="M392.9,344.6c37.3-26.6,64.2-66.9,73.5-113.5c-21.6,1.9-45.8,3.5-71.7,4.6C399.2,278.2,400,313,392.9,344.6z"
			/>
		<path class="st4" d="M46.2,202.1c8.7-2.6,25.4-6.2,57.3-9.6c0.1-6.2,0.5-12.2,1.2-18.2c-24,2.5-43,5.4-56.5,8.6
			c-14.3,3.4-27.5,8.2-27.5,19.2s13.2,15.7,27.5,19.2c13.6,3.3,32.9,6.2,57.5,8.7c0.4,0,0.7,0.1,1.1,0.1c-1.2-6-2-12.1-2.6-18.4
			C71.8,208.3,54.9,204.7,46.2,202.1z"/>
		<path class="st4" d="M536.1,182.9c-13.6-3.3-32.9-6.2-57.5-8.7c-3.3-0.3-6.7-0.7-10.1-1c0.7,6,1.1,12.1,1.3,18.2
			c39.1,3.7,58.6,7.8,68.2,10.7c-9.7,2.9-29.4,7-69,10.7c-0.6,6.2-1.5,12.3-2.7,18.3c4.2-0.4,8.3-0.8,12.3-1.2
			c24.5-2.5,43.8-5.4,57.5-8.7c14.3-3.4,27.5-8.2,27.5-19.2S550.4,186.3,536.1,182.9z"/>
		<path class="st4" d="M198.1,218c-29.4-1.2-56.7-2.8-80.5-5c-4.7-0.4-9.2-0.9-13.4-1.3c0.6,6.2,1.4,12.3,2.6,18.4
			c26.5,2.7,57.5,4.7,91.2,6C198.2,230.2,198.2,224.2,198.1,218z"/>
		<path class="st2" d="M263.7,181.8c-0.7-5.3-1-10.4-1-15.4c-23.6,0.3-46.4,0.9-68.1,1.7c0.7,6.1,1.3,12.1,1.8,18
			c21.6-0.9,44.4-1.4,67.7-1.7C263.9,183.6,263.8,182.7,263.7,181.8z"/>
		<path class="st4" d="M198.1,218c0.1,6.2,0.1,12.2-0.1,18c22.6,0.9,46.3,1.4,70.8,1.7c-0.3-5.8-0.7-11.9-1.2-18
			C243.6,219.5,220.3,218.9,198.1,218z"/>
		<path class="st4" d="M332.1,237.5c21.6-0.3,42.6-0.9,62.6-1.8c-0.6-5.8-1.3-11.7-2.1-17.8c0,0,0-0.1,0-0.1
			c-19.9,0.8-40.7,1.4-62.2,1.8C331,225.7,331.6,231.7,332.1,237.5z"/>
		<g>
			<path class="st2" d="M411,60.6c-34,19.5-75.2,53.5-82.6,106c-0.8,5.8-1.2,11.8-1.2,18c0,5,0.4,10.1,1,15.3
				c0.8,6.7,1.6,13.3,2.3,19.7c21.4-0.3,42.3-0.9,62.2-1.8c-1.4-11.1-1.3-21.6,0-31.4c0.8-6.2,2-12.2,3.7-17.9
				c8.4-28.7,26.9-51,47.3-67.9C434.6,85.7,423.6,72.3,411,60.6z"/>
			<path class="st2" d="M332.1,237.5c4.5,56,0.4,98.5-23.4,139.7c31.1-3.7,59.9-15.3,84.2-32.6c7.1-31.6,6.3-66.4,1.8-108.9
				C374.7,236.6,353.7,237.2,332.1,237.5z"/>
		</g>
		<path class="st3" d="M264,184.5c9.3-0.1,18.7-0.2,28.2-0.2c11.8,0,23.4,0.1,35,0.2c0-6.2,0.4-12.2,1.2-18
			c-11.9-0.2-24-0.3-36.2-0.3c-9.9,0-19.8,0.1-29.5,0.2c0,5,0.4,10.1,1,15.4C263.8,182.7,263.9,183.6,264,184.5z"/>
		<path class="st4" d="M292.1,219.8c-8.2,0-16.4,0-24.5-0.1c0.5,6.2,0.9,12.2,1.2,18c7.7,0.1,15.5,0.1,23.4,0.1
			c13.5,0,26.8-0.1,39.9-0.3c-0.5-5.8-1-11.8-1.7-18C317.8,219.7,305,219.8,292.1,219.8z"/>
		<path class="st3" d="M392.5,186.3c27,1.1,52.1,2.7,74.2,4.8c1.1,0.1,2.1,0.2,3.1,0.3c-0.1-6.1-0.6-12.2-1.3-18.2
			c-21.7-2-46.1-3.6-72.3-4.7C394.6,174.2,393.3,180.1,392.5,186.3z"/>
		<path class="st4" d="M466.7,213c-22.1,2-47.2,3.6-74.1,4.8c0,0,0,0.1,0,0.1c0.8,6.1,1.4,12,2.1,17.8c26-1.1,50.2-2.7,71.7-4.6
			c1.2-6,2.1-12.1,2.7-18.3C468.3,212.9,467.5,212.9,466.7,213z"/>
		<path class="st3" d="M169,335.7c19.7-31.1,27.7-62.6,28.9-99.7c-21.9-0.9-42.7-2-61.8-3.4c-2.1,16.7-6.6,32.8-12.1,47.3
			C135.3,301.3,150.6,320.3,169,335.7z"/>
		<path class="st3" d="M275.3,12.4C213,16.2,159.2,51.1,129,101.8c-5,23.1-5.7,47.4,2,70.1c19.5-1.5,40.9-2.8,63.5-3.7
			c-0.6-5.4-1.2-11-1.9-16.6C183.7,79.8,234.6,35.8,275.3,12.4z"/>
		<path class="st3" d="M137.5,214.7c18.7,1.4,39.1,2.5,60.6,3.4c-0.2-10.2-0.8-20.8-1.8-31.9c-21.6,0.9-42,2-60.7,3.5
			C137,198,137.6,206.3,137.5,214.7z"/>
		<g>
			<path class="st2" d="M124.1,279.9c5.4-14.5,9.9-30.6,12.1-47.3c-10.3-0.8-20.2-1.6-29.5-2.6C110.1,247.7,116.1,264.4,124.1,279.9
				z"/>
			<path class="st2" d="M135.5,189.6c-1-5.9-2.5-11.9-4.5-17.7c-7.7-22.8-7-47-2-70.1c-12.9,21.7-21.4,46.3-24.4,72.5
				c-0.7,6-1.1,12.1-1.2,18.2c0,0.9,0,1.8,0,2.7c0,5.5,0.3,11,0.7,16.4c4.2,0.4,8.7,0.9,13.4,1.3c6.4,0.6,13,1.1,19.9,1.6
				C137.6,206.3,137,198,135.5,189.6z"/>
		</g>
		<path class="st3" d="M135.5,189.6c18.7-1.4,39.2-2.6,60.7-3.5c-0.5-5.8-1.1-11.8-1.8-18c-22.6,0.9-44,2.2-63.5,3.7
			C133,177.8,134.5,183.7,135.5,189.6z"/>
	</g>
</g>
</svg>
