<?xml version="1.0" encoding="utf-8"?>
<!-- Generator: Adobe Illustrator 21.1.0, SVG Export Plug-In . SVG Version: 6.00 Build 0)  -->
<svg version="1.1" xmlns="http://www.w3.org/2000/svg" xmlns:xlink="http://www.w3.org/1999/xlink" x="0px" y="0px"
	 viewBox="0 0 369.3 380.5" style="enable-background:new 0 0 369.3 380.5;" xml:space="preserve">
<style type="text/css">
	.st0{fill:#FFFFFF;}
	.st1{fill:#FFC10C;}
	.st2{fill:#FFCF00;}
	.st3{fill:#F6921D;}
	.st4{fill:#F3791F;}
	.st5{fill:#69502E;}
</style>
<g id="레이어_2">
</g>
<g id="레이어_1">
	<path class="st0" d="M368.1,255.9c-4.5-26.2-16.7-42.5-35.6-39.3c-6.7-8.7-14.8-16.4-24.5-23.2c15.2-16.1,23.9-36.9,23.9-62.3
		C331.9,51.6,261.4,0,184.7,0C107.9,0,37.4,51.6,37.4,131.2c0,25.4,8.7,46.2,23.9,62.3c-9.7,6.8-17.8,14.5-24.5,23.2
		c-18.9-3.2-31,13.1-35.6,39.3c-4.8,27.4,5.3,52.8,19,57.7c13.7,40.3,59.6,66.9,164.5,66.9c104.9,0,150.8-26.6,164.5-66.9
		C362.8,308.7,372.9,283.3,368.1,255.9z"/>
	<g>
		<g>
			<path class="st1" d="M337.3,274.1c0,51.9-36.1,89.1-154.7,89.1C64.1,363.2,28,326,28,274.1c0-67.7,55.3-110.4,154.7-110.4
				C282,163.7,337.3,206.4,337.3,274.1z"/>
			<path class="st2" d="M317.3,135.3c0,62.6-57.7,94.6-134.6,94.6c-76.9,0-134.6-32-134.6-94.6c0-72.8,64.5-120,134.6-120
				C252.8,15.3,317.3,62.5,317.3,135.3z"/>
			<g>
				<path class="st2" d="M350.4,249.3c4.6,26.5-5.9,51-19.6,53.3c-14.2,2.5-23.6-18.5-28.2-45c-4.6-26.5,1-41.7,15.2-44.2
					C335.1,210.4,346.2,225.3,350.4,249.3z"/>
				<path class="st2" d="M14.9,249.3c-4.6,26.5,5.9,51,19.6,53.3c14.2,2.5,23.6-18.5,28.2-45c4.6-26.5-1-41.7-15.2-44.2
					C30.3,210.4,19.1,225.3,14.9,249.3z"/>
			</g>
			<g>
				<path class="st3" d="M182.7,188.5c-39.3,0-68.2-32.6-68.2-41.5c0-8.9,11.7,5.9,25.6-5.6c13.9-11.4,25.1-27.6,42.6-27.6
					c17.5,0,28.7,16.1,42.6,27.6c13.9,11.4,25.6-3.4,25.6,5.6C250.9,155.9,222,188.5,182.7,188.5z"/>
				<path class="st4" d="M182.7,180.5c30.3,0,60.7-15.6,65.4-33.6c0.3-1.2-11.4,12.4-25.6,12.4c-14.2,0-24.2-7.9-39.8-7.9
					c-15.6,0-25.6,7.9-39.8,7.9c-14.2,0-25.9-13.6-25.6-12.4C122,164.8,152.3,180.5,182.7,180.5z"/>
			</g>
			<g>
				<path class="st4" d="M197.4,124.1c1.6,1.6,1.4,3.1,0.3,4.2c-1.1,1.1-2.6,1.3-4.2-0.3c-1.6-1.6-1.5-5.4-1.5-5.4
					S195.8,122.5,197.4,124.1z"/>
				<path class="st4" d="M171.8,127.9c-1.6,1.6-3.1,1.4-4.2,0.3c-1.1-1.1-1.3-2.6,0.3-4.2c1.6-1.6,5.4-1.5,5.4-1.5
					S173.4,126.4,171.8,127.9z"/>
			</g>
		</g>
		<g>
			<g>
				<g>
					<path class="st5" d="M131.5,103.3c0-10.9-8.9-19.8-19.8-19.8c-10.9,0-19.8,8.9-19.8,19.8c0,10.9,8.9,19.8,19.8,19.8
						C122.7,123.1,131.5,114.2,131.5,103.3z"/>
					<path class="st5" d="M277.3,103.3c0-10.9-8.9-19.8-19.8-19.8c-10.9,0-19.8,8.9-19.8,19.8c0,10.9,8.9,19.8,19.8,19.8
						C268.4,123.1,277.3,114.2,277.3,103.3z"/>
				</g>
			</g>
		</g>
	</g>
</g>
</svg>
