<?xml version="1.0" encoding="utf-8"?>
<!-- Generator: Adobe Illustrator 21.1.0, SVG Export Plug-In . SVG Version: 6.00 Build 0)  -->
<svg version="1.1" id="레이어_1" xmlns="http://www.w3.org/2000/svg" xmlns:xlink="http://www.w3.org/1999/xlink" x="0px"
	 y="0px" viewBox="0 0 599.3 404.5" style="enable-background:new 0 0 599.3 404.5;" xml:space="preserve">
<style type="text/css">
	.st0{fill:#FFFFFF;}
</style>
<g id="레이어_2">
</g>
<path class="st0" d="M568.9,188.6c-15-3.6-36.4-6.9-63.4-9.6c-3.6-0.4-7.4-0.7-11.1-1.1c-3.5-29.1-13.1-56.3-27.6-80.2
	c-9.9-16.4-22-31.2-36-44.1c-13.9-12.9-29.7-23.8-46.8-32.4C356.7,7.7,326.1,0,293.6,0c-4.2,0-8.4,0.1-12.5,0.4
	c-68.7,4.2-128.2,42.7-161.5,98.7c-14.2,23.9-23.7,51.1-27,80c-26.5,2.7-47.5,5.9-62.3,9.5c-15.8,3.8-30.4,9-30.4,21.2
	s14.6,17.4,30.4,21.2c15,3.6,36.4,6.9,63.4,9.6c0.4,0,0.8,0.1,1.2,0.1c3.7,19.5,10.3,37.9,19.2,55c12.4,23.7,29.3,44.6,49.6,61.6
	c21.5,18,46.7,31.6,74.4,39.5c17.6,5,36.2,7.7,55.4,7.7c8.2,0,16.3-0.5,24.3-1.5c34.4-4.1,66.1-16.8,92.9-36
	c41.2-29.4,70.9-73.8,81.1-125.2c4.6-0.4,9.2-0.8,13.6-1.3c27-2.8,48.4-6,63.4-9.6c15.8-3.8,30.4-9,30.4-21.2
	S584.7,192.4,568.9,188.6z M128.9,223.7c7.6,0.6,15.6,1.1,23.7,1.6c-12.1-0.7-23.6-1.5-34.6-2.5
	C121.6,223.1,125.2,223.4,128.9,223.7z M195.8,227.4c-2.7-0.1-5.3-0.2-7.9-0.3C190.5,227.2,193.2,227.3,195.8,227.4z M186,227
	c-2.5-0.1-4.9-0.2-7.4-0.3C181,226.8,183.5,226.9,186,227z M178.2,226.6c-2.7-0.1-5.3-0.3-7.9-0.4
	C172.9,226.4,175.5,226.5,178.2,226.6z M168.9,226.2c-2.6-0.1-5.1-0.3-7.6-0.4C163.8,225.9,166.4,226,168.9,226.2z M161.2,225.8
	c-2.7-0.2-5.4-0.3-8.1-0.5C155.8,225.5,158.5,225.6,161.2,225.8z M117.7,222.8c-1.6-0.1-3.2-0.3-4.7-0.4
	C114.5,222.5,116.1,222.7,117.7,222.8z M112.2,222.3c-1.8-0.2-3.5-0.3-5.2-0.5C108.7,222,110.4,222.2,112.2,222.3z M103.7,241.5
	c-0.5-0.1-1.1-0.1-1.6-0.2C102.6,241.4,103.2,241.4,103.7,241.5z M110.5,242.1c0.1,0,0.3,0,0.4,0
	C110.8,242.1,110.7,242.1,110.5,242.1z M127.5,243.5L127.5,243.5L127.5,243.5L127.5,243.5z M151.6,245.1c0.3,0,0.6,0,0.8,0.1
	C152.1,245.1,151.9,245.1,151.6,245.1z M160.1,245.6c0.1,0,0.3,0,0.4,0C160.4,245.6,160.3,245.6,160.1,245.6z M169,246.1
	c0.1,0,0.2,0,0.3,0C169.2,246.1,169.1,246.1,169,246.1z M176.9,246.5c0.7,0,1.4,0.1,2.2,0.1C178.4,246.5,177.6,246.5,176.9,246.5z
	 M185.2,246.9c0.8,0,1.5,0.1,2.3,0.1C186.7,246.9,186,246.9,185.2,246.9z"/>
</svg>
