<?xml version="1.0" encoding="utf-8"?>
<!-- Generator: Adobe Illustrator 21.1.0, SVG Export Plug-In . SVG Version: 6.00 Build 0)  -->
<svg version="1.1" xmlns="http://www.w3.org/2000/svg" xmlns:xlink="http://www.w3.org/1999/xlink" x="0px" y="0px"
	 viewBox="0 0 369.3 380.5" style="enable-background:new 0 0 369.3 380.5;" xml:space="preserve">
<style type="text/css">
	.st0{fill:#FFFFFF;}
</style>
<g id="레이어_2">
</g>
<g id="레이어_1">
	<path class="st0" d="M368.1,255.9c-4.5-26.2-16.7-42.5-35.6-39.3c-6.7-8.7-14.8-16.4-24.5-23.2c15.2-16.1,23.9-36.9,23.9-62.3
		C331.9,51.6,261.4,0,184.7,0C107.9,0,37.4,51.6,37.4,131.2c0,25.4,8.7,46.2,23.9,62.3c-9.7,6.8-17.8,14.5-24.5,23.2
		c-18.9-3.2-31,13.1-35.6,39.3c-4.8,27.4,5.3,52.8,19,57.7c13.7,40.3,59.6,66.9,164.5,66.9c104.9,0,150.8-26.6,164.5-66.9
		C362.8,308.7,372.9,283.3,368.1,255.9z"/>
</g>
</svg>
