<?xml version="1.0" encoding="utf-8"?>
<!-- Generator: Adobe Illustrator 21.1.0, SVG Export Plug-In . SVG Version: 6.00 Build 0)  -->
<svg version="1.1" id="레이어_1" xmlns="http://www.w3.org/2000/svg" xmlns:xlink="http://www.w3.org/1999/xlink" x="0px"
	 y="0px" viewBox="0 0 588 327.6" style="enable-background:new 0 0 588 327.6;" xml:space="preserve">
<style type="text/css">
	.st0{fill:#CFECF9;}
	.st1{fill:#33BBFF;}
	.st2{fill:#FFFFFF;}
	.st3{fill:#FFDC0D;}
	.st4{fill:#FFE600;}
	.st5{fill:#F6921D;}
	.st6{fill:#F3791F;}
	.st7{fill:#69502E;}
</style>
<g>
	<path class="st0" d="M585.3,83.5c1.8-5.4,2.6-8.7,2.7-11.7l0-0.1l0,0c0-0.2,0-0.3,0-0.5C588,31.9,456.4,0,294,0S0,31.9,0,71.2
		c0,0.2,0,0.3,0,0.5l0,0l0,0.1c0,3.5,1.8,6.2,2.7,9.9l30.1,115.3c0.6,2.6,1.2,5.2,2,7.8l0,0.1l0,0C56.7,274.6,164.4,327.6,294,327.6
		c118.5,0,218.8-44.3,251.7-105.3l0,0l0,0c6.9-12.9,8.7-25.4,12.4-39.9L585.3,83.5z"/>
	<path class="st1" d="M92.5,142.3C66,131.9,34,117,34.5,118.6l26.6,80.2c0.5,1.8,1.1,3.6,1.8,5.4l0,0.1l0,0
		c19.3,48.6,114.5,85.5,229.1,85.5c104.8,0,193.4-30.9,222.5-73.3l0,0l0,0c6.1-8.9,7.7-17.7,10.9-27.8l24.1-68.8
		c1.6-3.8,2.3-6.1,2.4-8.1l0-0.1l0,0c0,0,0-0.1,0-0.1C376.7,196.8,187.4,179.5,92.5,142.3z"/>
	<path class="st1" d="M552,88.6c-10.7-26.6-50.8-36.1-112.3-24.1s-89.2,61.6-133.6,41.4C217.9,65.8,44.1,65.8,34.8,118
		s359.5,113.6,517.2-6.7C552,111.3,554.6,95.2,552,88.6z"/>
	<g>
		<path class="st2" d="M50.8,99.2c4.8,1.5,9.6,3,14.5,4.3c4.9,1.4,9.7,2.6,14.6,3.9c9.8,2.4,19.6,4.7,29.4,6.7
			c9.8,2.1,19.7,4,29.6,5.7c9.9,1.7,19.8,3.3,29.7,4.6c5,0.6,9.9,1.3,14.9,1.9c5,0.6,10,1.1,14.9,1.7c10,1,20,1.9,30,2.5
			c5,0.4,10,0.6,15,0.9c5,0.2,10,0.5,15,0.6c5,0.1,10,0.3,15,0.4l7.5,0.1l7.5,0c40.1,0,80.1-2.8,119.8-8.4
			c39.7-5.6,79.1-14.1,118-24.9c-37.6,14.7-76.8,25.4-116.7,32.6c-39.9,7.1-80.5,10.8-121.1,10.7c-20.3,0-40.6-0.8-60.8-2.6
			c-20.2-1.8-40.3-4.3-60.3-7.8c-10-1.8-19.9-3.7-29.8-5.9c-9.9-2.2-19.7-4.6-29.5-7.3c-9.7-2.7-19.4-5.6-29-8.8
			C69.5,106.8,60,103.4,50.8,99.2z"/>
	</g>
	<g>
		<g>
			<path class="st3" d="M374.5,89.7c0,14.9-10.4,25.6-44.4,25.6c-34.1,0-44.4-10.7-44.4-25.6c0-19.4,15.9-31.7,44.4-31.7
				C358.6,58,374.5,70.2,374.5,89.7z"/>
			<path class="st4" d="M368.7,49.8c0,18-16.6,27.2-38.7,27.2c-22.1,0-38.7-9.2-38.7-27.2c0-20.9,18.5-34.5,38.7-34.5
				C350.2,15.3,368.7,28.9,368.7,49.8z"/>
			<g>
				<path class="st4" d="M378.2,82.6c1.3,7.6-1.7,14.6-5.6,15.3c-4.1,0.7-6.8-5.3-8.1-12.9c-1.3-7.6,0.3-12,4.4-12.7
					C373.8,71.4,377.1,75.7,378.2,82.6z"/>
				<path class="st4" d="M281.9,82.6c-1.3,7.6,1.7,14.6,5.6,15.3c4.1,0.7,6.8-5.3,8.1-12.9c1.3-7.6-0.3-12-4.4-12.7
					C286.3,71.4,283.1,75.7,281.9,82.6z"/>
			</g>
			<g>
				<path class="st5" d="M330.1,65.1c-11.3,0-19.6-9.4-19.6-11.9c0-2.6,3.4,1.7,7.4-1.6c4-3.3,7.2-7.9,12.2-7.9
					c5,0,8.2,4.6,12.2,7.9c4,3.3,7.4-1,7.4,1.6C349.7,55.7,341.3,65.1,330.1,65.1z"/>
				<path class="st6" d="M330.1,62.8c8.7,0,17.4-4.5,18.8-9.7c0.1-0.3-3.3,3.6-7.4,3.6c-4.1,0-7-2.3-11.4-2.3
					c-4.5,0-7.4,2.3-11.4,2.3c-4.1,0-7.5-3.9-7.4-3.6C312.6,58.3,321.3,62.8,330.1,62.8z"/>
			</g>
			<g>
				<path class="st6" d="M334.3,46.6c0.4,0.4,0.4,0.9,0.1,1.2c-0.3,0.3-0.8,0.4-1.2-0.1c-0.4-0.4-0.4-1.5-0.4-1.5
					S333.8,46.1,334.3,46.6z"/>
				<path class="st6" d="M326.9,47.7c-0.4,0.4-0.9,0.4-1.2,0.1c-0.3-0.3-0.4-0.8,0.1-1.2c0.4-0.4,1.5-0.4,1.5-0.4
					S327.4,47.3,326.9,47.7z"/>
			</g>
		</g>
		<g>
			<g>
				<g>
					<path class="st7" d="M315.4,40.6c0-3.1-2.5-5.7-5.7-5.7c-3.1,0-5.7,2.5-5.7,5.7c0,3.1,2.5,5.7,5.7,5.7
						C312.8,46.3,315.4,43.8,315.4,40.6z"/>
					<path class="st7" d="M357.2,40.6c0-3.1-2.5-5.7-5.7-5.7c-3.1,0-5.7,2.5-5.7,5.7c0,3.1,2.5,5.7,5.7,5.7
						C354.7,46.3,357.2,43.8,357.2,40.6z"/>
				</g>
			</g>
		</g>
	</g>
	<circle class="st2" cx="311.4" cy="39.1" r="1.3"/>
	<circle class="st2" cx="354.2" cy="39.1" r="1.3"/>
</g>
</svg>
