<?xml version="1.0" encoding="utf-8"?>
<!-- Generator: Adobe Illustrator 21.1.0, SVG Export Plug-In . SVG Version: 6.00 Build 0)  -->
<svg version="1.1" id="레이어_1" xmlns="http://www.w3.org/2000/svg" xmlns:xlink="http://www.w3.org/1999/xlink" x="0px"
	 y="0px" viewBox="0 0 528.2 66.5" style="enable-background:new 0 0 528.2 66.5;" xml:space="preserve">
<style type="text/css">
	.st0{enable-background:new    ;}
	.st1{fill:#FFFFFF;}
</style>
<title>jellinglogo</title>
<g class="st0">
	<path class="st1" d="M15.2,40.2c-1.7,0-3-0.9-4-2.7c-0.5,0.7-0.8,1.4-0.8,2.1c0,1.3,0.6,2.4,1.8,3.2s2.7,1.3,4.5,1.3
		c3.3,0,5.7-1.2,7.3-3.5c1-1.5,1.5-3.8,1.5-7V16.9c0-1.3-0.1-2.3-0.4-2.7c-0.4-0.7-1.2-1-2.3-1c-0.5,0-1.3,0.1-2.3,0.3
		c-1,0.2-1.8,0.3-2.3,0.3c-1.1,0-1.9-0.4-2.6-1.3c-0.7-0.9-1-2-1-3.4c0-1.6,0.5-2.9,1.5-3.9s2.3-1.4,3.9-1.4c1.1,0,2.4,0.1,4.1,0.3
		c2.5,0.3,5.1,0.4,7.7,0.4c1.6,0,3.5-0.1,5.8-0.4c2.3-0.2,3.8-0.4,4.4-0.4c1.7,0,3,0.5,4.1,1.4c1.1,1,1.6,2.2,1.6,3.7
		c0,1.3-0.4,2.5-1.2,3.4s-1.8,1.4-3.1,1.4c-0.6,0-1.2-0.1-1.8-0.3c-1-0.1-1.5-0.2-1.4-0.2c-1.2,0-1.8,1.2-1.8,3.7v19
		c0,3.1-0.4,5.6-1.2,7.5s-2.2,3.6-4.1,5.2c-3.9,3.2-8.7,4.8-14.4,4.8c-5.4,0-9.8-1.4-13.4-4.1C1.7,46.4,0,42.9,0,38.7
		c0-3.4,1.2-6.3,3.5-8.7c2.4-2.4,5.2-3.6,8.4-3.6c2.6,0,4.8,0.8,6.6,2.3s2.7,3.3,2.7,5.5c0,1.7-0.6,3.2-1.7,4.4
		C18.2,39.6,16.8,40.2,15.2,40.2z"/>
	<path class="st1" d="M84.2,30.9c0,2-0.3,3.4-0.8,4c-0.5,0.7-1.5,1-3,1H62.9c-0.9,0-1.4,0.1-1.6,0.3c-0.2,0.2-0.3,0.6-0.3,1.3
		c0,2,0.6,3.7,1.9,5c1.3,1.3,2.9,2,4.9,2s4.1-1.1,6.2-3.3c1.4-1.5,3-2.3,4.8-2.3c1.4,0,2.6,0.4,3.5,1.2s1.3,1.8,1.3,3.1
		c0,2.8-1.5,5.1-4.6,7.1c-3,1.9-6.8,2.9-11.1,2.9c-5.7,0-10.3-1.7-13.7-5.2s-5.1-8.1-5.1-13.8c0-5.8,1.7-10.5,5.1-14.1
		c3.4-3.6,7.8-5.4,13.3-5.4c5.1,0,9.2,1.5,12.2,4.4C82.7,22.1,84.2,26,84.2,30.9z M61.3,27.3c0,0.3,0.1,0.5,0.2,0.7
		c0.1,0.2,0.6,0.3,1.5,0.3h8.1c0.7,0,1.2-0.1,1.3-0.3c0.2-0.2,0.3-0.5,0.3-0.9c0-1.2-0.6-2.3-1.7-3.3c-1.1-0.9-2.4-1.4-3.9-1.4
		c-1.9,0-3.5,0.7-4.7,2.2C61.7,25.6,61.3,26.5,61.3,27.3z"/>
	<path class="st1" d="M103.1,3.5c1.3,0,2,0.9,2,2.7v34.1c0,2.4,0.5,3.6,1.4,3.6c0.4,0,0.7,0,1-0.1s0.7-0.1,1.2-0.1
		c2.1,0,3.2,1.2,3.2,3.7c0,3.3-1.4,5-4.3,5c0,0-1.9-0.1-5.5-0.4c-1.1-0.1-2.3-0.1-3.5-0.1c-1.1,0-2.2,0.1-3.4,0.2
		c-2,0.2-3.3,0.4-3.8,0.4c-1.3,0-2.4-0.4-3.2-1.3c-0.8-0.9-1.2-2.1-1.2-3.5c0-2.7,1.2-4,3.5-4c0.3,0,0.7,0.1,1.2,0.3
		s0.9,0.3,1.2,0.3c0.8,0,1.2-1.3,1.2-4v-24c0-2.7-0.4-4-1.2-4c-0.3,0-0.8,0.1-1.3,0.3c-0.3,0.1-0.7,0.1-1.2,0.1
		c-2.3,0-3.5-1.3-3.5-4c0-1.5,0.4-2.7,1.2-3.5c0.8-0.9,1.9-1.3,3.3-1.3c0.4,0,1.2,0.1,2.4,0.2c1.6,0.2,2.9,0.3,3.7,0.3
		c1.1,0,2.1-0.1,2.9-0.3C101.6,3.6,102.4,3.5,103.1,3.5z"/>
	<path class="st1" d="M129.3,3.5c1.3,0,2,0.9,2,2.7v34.1c0,2.4,0.5,3.6,1.4,3.6c0.4,0,0.7,0,1-0.1s0.7-0.1,1.2-0.1
		c2.1,0,3.2,1.2,3.2,3.7c0,3.3-1.4,5-4.3,5c0,0-1.9-0.1-5.5-0.4c-1.1-0.1-2.3-0.1-3.5-0.1c-1.1,0-2.2,0.1-3.4,0.2
		c-2,0.2-3.3,0.4-3.8,0.4c-1.3,0-2.4-0.4-3.2-1.3c-0.8-0.9-1.2-2.1-1.2-3.5c0-2.7,1.2-4,3.5-4c0.3,0,0.7,0.1,1.2,0.3
		s0.9,0.3,1.2,0.3c0.8,0,1.2-1.3,1.2-4v-24c0-2.7-0.4-4-1.2-4c-0.3,0-0.8,0.1-1.3,0.3c-0.3,0.1-0.7,0.1-1.2,0.1
		c-2.3,0-3.5-1.3-3.5-4c0-1.5,0.4-2.7,1.2-3.5c0.8-0.9,1.9-1.3,3.3-1.3c0.4,0,1.2,0.1,2.4,0.2c1.6,0.2,2.9,0.3,3.7,0.3
		c1.1,0,2.1-0.1,2.9-0.3C127.8,3.6,128.7,3.5,129.3,3.5z"/>
	<path class="st1" d="M156.2,15.7c1.3,0,2,0.9,2,2.8v21.7c0,2.4,0.5,3.7,1.4,3.7c0.2,0,0.5-0.1,1-0.2c0.5-0.1,0.9-0.2,1.3-0.2
		c2,0,3,1.2,3,3.7c0,3.3-1.4,5-4.2,5c-0.5,0-1.8-0.1-4-0.4c-1.3-0.1-2.9-0.2-4.6-0.2c-0.9,0-2.1,0.1-3.8,0.3s-2.9,0.3-3.7,0.3
		c-1.3,0-2.4-0.4-3.2-1.3c-0.8-0.9-1.2-2-1.2-3.4c0-2.7,1.2-4.1,3.5-4.1l1.9,0.4c0.2,0,0.4,0.1,0.5,0.1c0.9,0,1.3-1.3,1.3-4V28.2
		c0-2.7-0.4-4.1-1.2-4.1c-0.1,0-0.6,0.1-1.3,0.4c-0.5,0.1-0.9,0.1-1.2,0.1c-2.3,0-3.5-1.3-3.5-4c0-1.4,0.4-2.6,1.2-3.5
		s1.9-1.3,3.2-1.3c0.5,0,1.3,0.1,2.3,0.2c1.7,0.2,3,0.4,4,0.4c0.8,0,1.9-0.1,3.2-0.3C155.3,15.8,156.1,15.7,156.2,15.7z M152.1,13
		c-1.8,0-3.3-0.6-4.6-1.9s-1.9-2.8-1.9-4.6s0.6-3.4,1.9-4.6c1.3-1.3,2.8-1.9,4.6-1.9s3.4,0.6,4.6,1.9c1.3,1.3,1.9,2.8,1.9,4.6
		s-0.6,3.4-1.9,4.6C155.5,12.4,153.9,13,152.1,13z"/>
	<path class="st1" d="M182,17.8v3.5c3.7-4.3,7.9-6.5,12.5-6.5c5,0,8.5,1.9,10.6,5.6c1.1,1.9,1.7,4.9,1.7,9.1v10.8
		c0,2.4,0.5,3.7,1.4,3.7c0.2,0,0.6-0.1,1.1-0.2c0.2-0.1,0.6-0.1,1.1-0.1c2.1,0,3.2,1.2,3.2,3.7c0,3.3-1.4,5-4.3,5
		c-0.8,0-1.9-0.1-3.5-0.3c-1.5-0.2-2.7-0.3-3.5-0.3c-1.2,0-2.5,0.1-3.8,0.3s-2.4,0.3-3.3,0.3c-2.8,0-4.2-1.5-4.2-4.4
		c0-2.5,1-3.9,3-4c1.3-0.1,1.9-0.7,1.9-1.8V31.9c0-2.8-0.4-4.7-1.1-5.9c-0.7-1.1-1.9-1.7-3.7-1.7c-2,0-3.6,0.7-4.9,2
		c-1.3,1.3-1.9,3-1.9,5.1v7.5c0,2.2,0.1,3.5,0.3,3.9c0.2,0.5,0.7,0.8,1.7,0.9c1.7,0.2,2.6,1.5,2.6,3.9c0,3-1.3,4.5-3.8,4.5
		c-0.7,0-1.6-0.1-2.7-0.2c-1.8-0.2-3.1-0.4-4-0.4s-2.1,0.1-3.9,0.3c-1.7,0.2-3,0.3-3.9,0.3c-3,0-4.5-1.6-4.5-4.8c0-2.7,1.2-4,3.5-4
		c0.4,0,0.8,0.1,1.3,0.3s0.8,0.3,1.1,0.3c0.8,0,1.2-1.3,1.2-4V28.2c0-2.7-0.4-4.1-1.2-4.1c-0.2,0-0.6,0.1-1.1,0.3
		c-0.6,0.2-1,0.3-1.3,0.3c-2.3,0-3.5-1.3-3.5-4c0-1.4,0.4-2.6,1.2-3.5s1.8-1.4,3.1-1.4c0.4,0,1.2,0.1,2.4,0.4
		c0.7,0.1,1.3,0.2,1.9,0.2c0.6,0,1.6-0.1,3-0.3c1.4-0.2,2.2-0.3,2.3-0.3C181.3,15.7,182,16.4,182,17.8z"/>
	<path class="st1" d="M234.4,14.7l2.7,0.1c0-2.4,0.9-4.4,2.4-5.7s3.8-2.1,6.6-2.1c2.3,0,4.1,0.6,5.7,1.7c1.5,1.2,2.3,2.6,2.3,4.4
		c0,1.2-0.4,2.2-1.2,3s-1.8,1.2-3,1.2c-1.3,0-2.3-0.5-3-1.5l-0.7-1.2c-0.2-0.3-0.5-0.5-0.9-0.5c-1,0-1.5,0.7-1.5,2.1
		c0,0.3,0,0.6,0.1,0.7c4.6,1.6,6.9,4.9,6.9,9.8c0,3.7-1.4,6.7-4.3,8.9c-2.9,2.3-6.6,3.4-11.3,3.4c-2.5,0-5.1-0.6-7.7-1.7l-0.4-0.1
		c-0.7,0.6-1.1,1.2-1.1,1.9c0,1.6,1.2,2.6,3.5,3c0.8,0.1,2.5,0.2,5.3,0.2h0.8l4.6-0.1c4.6,0,8.2,0.8,10.7,2.7
		c2.5,1.8,3.7,4.4,3.7,7.8c0,4.3-1.9,7.6-5.6,10.1c-3.7,2.5-8.8,3.7-15.3,3.7c-5.8,0-10.4-1.1-13.9-3.2c-3.5-2.1-5.2-5-5.2-8.5
		c0-3.8,2.4-6.5,7.3-8c-3.8-0.8-5.8-3-5.8-6.6c0-1.9,0.4-3.3,1.3-4.4c0.8-1.1,2.3-2.1,4.5-3.1c-1.7-1.9-2.6-4-2.6-6.3
		c0-3.4,1.5-6.2,4.4-8.5C226.5,15.9,230.1,14.7,234.4,14.7z M233.5,51c-1.2,0-2.6-0.1-4.3-0.3c-2.2,0.9-3.2,2-3.2,3.3
		c0,2.5,2.8,3.8,8.5,3.8s8.6-1.3,8.6-3.8c0-2.1-1.9-3.1-5.6-3.1c-0.1,0-0.8,0-1.9,0.1H233.5z M235,22.3c-1.3,0-2.5,0.4-3.3,1.3
		c-0.9,0.9-1.3,2-1.3,3.3s0.4,2.5,1.3,3.4c0.9,0.9,2,1.4,3.3,1.4s2.5-0.5,3.3-1.4c0.9-0.9,1.3-2,1.3-3.3s-0.4-2.5-1.3-3.4
		C237.4,22.8,236.3,22.3,235,22.3z"/>
	<path class="st1" d="M288.8,40.2c-1.7,0-3-0.9-4-2.7c-0.5,0.7-0.8,1.4-0.8,2.1c0,1.3,0.6,2.4,1.8,3.2c1.2,0.8,2.7,1.3,4.5,1.3
		c3.3,0,5.7-1.2,7.3-3.5c1-1.5,1.5-3.8,1.5-7V16.9c0-1.3-0.1-2.3-0.4-2.7c-0.4-0.7-1.2-1-2.3-1c-0.5,0-1.3,0.1-2.3,0.3
		s-1.8,0.3-2.3,0.3c-1.1,0-1.9-0.4-2.6-1.3s-1-2-1-3.4c0-1.6,0.5-2.9,1.5-3.9s2.3-1.4,3.9-1.4c1.1,0,2.4,0.1,4.1,0.3
		c2.5,0.3,5.1,0.4,7.7,0.4c1.6,0,3.5-0.1,5.8-0.4c2.3-0.2,3.8-0.4,4.4-0.4c1.7,0,3,0.5,4.1,1.4c1.1,1,1.6,2.2,1.6,3.7
		c0,1.3-0.4,2.5-1.2,3.4s-1.8,1.4-3.1,1.4c-0.6,0-1.2-0.1-1.8-0.3c-1-0.1-1.5-0.2-1.4-0.2c-1.2,0-1.8,1.2-1.8,3.7v19
		c0,3.1-0.4,5.6-1.2,7.5c-0.8,1.9-2.2,3.6-4.1,5.2c-3.9,3.2-8.7,4.8-14.4,4.8c-5.4,0-9.8-1.4-13.4-4.1c-3.6-2.8-5.3-6.3-5.3-10.5
		c0-3.4,1.2-6.3,3.5-8.7c2.4-2.4,5.2-3.6,8.4-3.6c2.6,0,4.8,0.8,6.6,2.3c1.8,1.5,2.7,3.3,2.7,5.5c0,1.7-0.6,3.2-1.7,4.4
		C291.8,39.6,290.4,40.2,288.8,40.2z"/>
	<path class="st1" d="M357.8,30.9c0,2-0.3,3.4-0.8,4c-0.5,0.7-1.5,1-3,1h-17.6c-0.9,0-1.4,0.1-1.6,0.3s-0.3,0.6-0.3,1.3
		c0,2,0.6,3.7,1.9,5s2.9,2,4.9,2s4.1-1.1,6.2-3.3c1.4-1.5,3-2.3,4.8-2.3c1.4,0,2.6,0.4,3.5,1.2s1.3,1.8,1.3,3.1
		c0,2.8-1.5,5.1-4.6,7.1c-3,1.9-6.8,2.9-11.1,2.9c-5.7,0-10.3-1.7-13.7-5.2s-5.1-8.1-5.1-13.8c0-5.8,1.7-10.5,5.1-14.1
		s7.8-5.4,13.3-5.4c5.1,0,9.2,1.5,12.2,4.4C356.3,22.1,357.8,26,357.8,30.9z M334.9,27.3c0,0.3,0.1,0.5,0.2,0.7s0.6,0.3,1.5,0.3h8.1
		c0.7,0,1.2-0.1,1.3-0.3c0.2-0.2,0.3-0.5,0.3-0.9c0-1.2-0.6-2.3-1.7-3.3c-1.1-0.9-2.4-1.4-3.9-1.4c-1.9,0-3.5,0.7-4.7,2.2
		C335.3,25.6,334.9,26.5,334.9,27.3z"/>
	<path class="st1" d="M376.7,3.5c1.3,0,2,0.9,2,2.7v34.1c0,2.4,0.5,3.6,1.4,3.6c0.4,0,0.7,0,1-0.1s0.7-0.1,1.2-0.1
		c2.1,0,3.2,1.2,3.2,3.7c0,3.3-1.4,5-4.3,5c0,0-1.9-0.1-5.5-0.4c-1.1-0.1-2.3-0.1-3.5-0.1c-1.1,0-2.2,0.1-3.4,0.2
		c-2,0.2-3.3,0.4-3.8,0.4c-1.3,0-2.4-0.4-3.2-1.3c-0.8-0.9-1.2-2.1-1.2-3.5c0-2.7,1.2-4,3.5-4c0.3,0,0.7,0.1,1.2,0.3
		s0.9,0.3,1.2,0.3c0.8,0,1.2-1.3,1.2-4v-24c0-2.7-0.4-4-1.2-4c-0.3,0-0.8,0.1-1.3,0.3c-0.3,0.1-0.7,0.1-1.2,0.1
		c-2.3,0-3.5-1.3-3.5-4c0-1.5,0.4-2.7,1.2-3.5s1.9-1.3,3.3-1.3c0.4,0,1.2,0.1,2.4,0.2c1.6,0.2,2.9,0.3,3.7,0.3
		c1.1,0,2.1-0.1,2.9-0.3C375.2,3.6,376,3.5,376.7,3.5z"/>
	<path class="st1" d="M402.9,3.5c1.3,0,2,0.9,2,2.7v34.1c0,2.4,0.5,3.6,1.4,3.6c0.4,0,0.7,0,1-0.1s0.7-0.1,1.2-0.1
		c2.1,0,3.2,1.2,3.2,3.7c0,3.3-1.4,5-4.3,5c0,0-1.9-0.1-5.5-0.4c-1.1-0.1-2.3-0.1-3.5-0.1c-1.1,0-2.2,0.1-3.4,0.2
		c-2,0.2-3.3,0.4-3.8,0.4c-1.3,0-2.4-0.4-3.2-1.3c-0.8-0.9-1.2-2.1-1.2-3.5c0-2.7,1.2-4,3.5-4c0.3,0,0.7,0.1,1.2,0.3
		s0.9,0.3,1.2,0.3c0.8,0,1.2-1.3,1.2-4v-24c0-2.7-0.4-4-1.2-4c-0.3,0-0.8,0.1-1.3,0.3c-0.3,0.1-0.7,0.1-1.2,0.1
		c-2.3,0-3.5-1.3-3.5-4c0-1.5,0.4-2.7,1.2-3.5s1.9-1.3,3.3-1.3c0.4,0,1.2,0.1,2.4,0.2c1.6,0.2,2.9,0.3,3.7,0.3
		c1.1,0,2.1-0.1,2.9-0.3C401.4,3.6,402.3,3.5,402.9,3.5z"/>
	<path class="st1" d="M429.8,15.7c1.3,0,2,0.9,2,2.8v21.7c0,2.4,0.5,3.7,1.4,3.7c0.2,0,0.5-0.1,1-0.2c0.5-0.1,0.9-0.2,1.3-0.2
		c2,0,3,1.2,3,3.7c0,3.3-1.4,5-4.2,5c-0.5,0-1.8-0.1-4-0.4c-1.3-0.1-2.9-0.2-4.6-0.2c-0.9,0-2.1,0.1-3.8,0.3
		c-1.7,0.2-2.9,0.3-3.7,0.3c-1.3,0-2.4-0.4-3.2-1.3c-0.8-0.9-1.2-2-1.2-3.4c0-2.7,1.2-4.1,3.5-4.1l1.9,0.4c0.2,0,0.4,0.1,0.5,0.1
		c0.9,0,1.3-1.3,1.3-4V28.2c0-2.7-0.4-4.1-1.2-4.1c-0.1,0-0.6,0.1-1.3,0.4c-0.5,0.1-0.9,0.1-1.2,0.1c-2.3,0-3.5-1.3-3.5-4
		c0-1.4,0.4-2.6,1.2-3.5c0.8-0.9,1.9-1.3,3.2-1.3c0.5,0,1.3,0.1,2.3,0.2c1.7,0.2,3,0.4,4,0.4c0.8,0,1.9-0.1,3.2-0.3
		C428.9,15.8,429.7,15.7,429.8,15.7z M425.7,13c-1.8,0-3.3-0.6-4.6-1.9c-1.3-1.3-1.9-2.8-1.9-4.6s0.6-3.4,1.9-4.6
		c1.3-1.3,2.8-1.9,4.6-1.9c1.8,0,3.4,0.6,4.6,1.9c1.3,1.3,1.9,2.8,1.9,4.6s-0.6,3.4-1.9,4.6C429.1,12.4,427.5,13,425.7,13z"/>
	<path class="st1" d="M455.6,17.8v3.5c3.7-4.3,7.9-6.5,12.5-6.5c5,0,8.5,1.9,10.6,5.6c1.1,1.9,1.7,4.9,1.7,9.1v10.8
		c0,2.4,0.5,3.7,1.4,3.7c0.2,0,0.6-0.1,1.1-0.2c0.2-0.1,0.6-0.1,1.1-0.1c2.1,0,3.2,1.2,3.2,3.7c0,3.3-1.4,5-4.3,5
		c-0.8,0-1.9-0.1-3.5-0.3s-2.7-0.3-3.5-0.3c-1.2,0-2.5,0.1-3.8,0.3s-2.4,0.3-3.3,0.3c-2.8,0-4.2-1.5-4.2-4.4c0-2.5,1-3.9,3-4
		c1.3-0.1,1.9-0.7,1.9-1.8V31.9c0-2.8-0.4-4.7-1.1-5.9s-1.9-1.7-3.7-1.7c-2,0-3.6,0.7-4.9,2s-1.9,3-1.9,5.1v7.5
		c0,2.2,0.1,3.5,0.3,3.9c0.2,0.5,0.7,0.8,1.7,0.9c1.7,0.2,2.6,1.5,2.6,3.9c0,3-1.3,4.5-3.8,4.5c-0.7,0-1.6-0.1-2.7-0.2
		c-1.8-0.2-3.1-0.4-4-0.4s-2.1,0.1-3.9,0.3c-1.7,0.2-3,0.3-3.9,0.3c-3,0-4.5-1.6-4.5-4.8c0-2.7,1.2-4,3.5-4c0.4,0,0.8,0.1,1.3,0.3
		s0.8,0.3,1.1,0.3c0.8,0,1.2-1.3,1.2-4V28.2c0-2.7-0.4-4.1-1.2-4.1c-0.2,0-0.6,0.1-1.1,0.3c-0.6,0.2-1,0.3-1.3,0.3
		c-2.3,0-3.5-1.3-3.5-4c0-1.4,0.4-2.6,1.2-3.5c0.8-0.9,1.8-1.4,3.1-1.4c0.4,0,1.2,0.1,2.4,0.4c0.7,0.1,1.3,0.2,1.9,0.2
		s1.6-0.1,3-0.3c1.4-0.2,2.2-0.3,2.3-0.3C454.9,15.7,455.6,16.4,455.6,17.8z"/>
	<path class="st1" d="M508,14.7l2.7,0.1c0-2.4,0.9-4.4,2.4-5.7c1.5-1.3,3.8-2.1,6.6-2.1c2.3,0,4.1,0.6,5.7,1.7
		c1.5,1.2,2.3,2.6,2.3,4.4c0,1.2-0.4,2.2-1.2,3s-1.8,1.2-3,1.2c-1.3,0-2.3-0.5-3-1.5l-0.7-1.2c-0.2-0.3-0.5-0.5-0.9-0.5
		c-1,0-1.5,0.7-1.5,2.1c0,0.3,0,0.6,0.1,0.7c4.6,1.6,6.9,4.9,6.9,9.8c0,3.7-1.4,6.7-4.3,8.9c-2.9,2.3-6.6,3.4-11.3,3.4
		c-2.5,0-5.1-0.6-7.7-1.7l-0.4-0.1c-0.7,0.6-1.1,1.2-1.1,1.9c0,1.6,1.2,2.6,3.5,3c0.8,0.1,2.5,0.2,5.3,0.2h0.8l4.6-0.1
		c4.6,0,8.2,0.8,10.7,2.7s3.7,4.4,3.7,7.8c0,4.3-1.9,7.6-5.6,10.1c-3.7,2.5-8.8,3.7-15.3,3.7c-5.8,0-10.4-1.1-13.9-3.2
		c-3.5-2.1-5.2-5-5.2-8.5c0-3.8,2.4-6.5,7.3-8c-3.8-0.8-5.8-3-5.8-6.6c0-1.9,0.4-3.3,1.3-4.4c0.8-1.1,2.3-2.1,4.5-3.1
		c-1.7-1.9-2.6-4-2.6-6.3c0-3.4,1.5-6.2,4.4-8.5C500.1,15.9,503.7,14.7,508,14.7z M507.1,51c-1.2,0-2.6-0.1-4.3-0.3
		c-2.2,0.9-3.2,2-3.2,3.3c0,2.5,2.8,3.8,8.5,3.8c5.7,0,8.6-1.3,8.6-3.8c0-2.1-1.9-3.1-5.6-3.1c-0.1,0-0.8,0-1.9,0.1H507.1z
		 M508.6,22.3c-1.3,0-2.5,0.4-3.3,1.3c-0.9,0.9-1.3,2-1.3,3.3s0.4,2.5,1.3,3.4s2,1.4,3.3,1.4s2.5-0.5,3.3-1.4c0.9-0.9,1.3-2,1.3-3.3
		s-0.4-2.5-1.3-3.4C511,22.8,509.9,22.3,508.6,22.3z"/>
</g>
</svg>
